<?xml version="1.0" encoding="UTF-8"?>
<svg width="150px" height="30px" viewBox="0 0 150 30" version="1.1" xmlns="http://www.w3.org/2000/svg" xmlns:xlink="http://www.w3.org/1999/xlink">
    <!-- Generator: sketchtool 55.2 (78181) - https://sketchapp.com -->
    <title>E033AF6E-9DE6-4173-919C-D6BDFDDBD6DD</title>
    <desc>Created with sketchtool.</desc>
    <defs>
        <polygon id="path-1" points="101.488576 17.3642275 101.488576 0.214834153 0.24402703 0.214834153 0.24402703 17.3642275"></polygon>
    </defs>
    <g id="INFORMACIÓN-DE-PLANTA" stroke="none" stroke-width="1" fill="none" fill-rule="evenodd">
        <g id="01-CLIENTE-Info-planta---Movil" transform="translate(-41.000000, -24.000000)">
            <g id="Group" transform="translate(0.000000, -16.000000)">
                <g id="D-Header-main" transform="translate(41.000000, 40.000000)">
                    <g id="Movistar-Lockup-Logo">
                        <g id="Logo">
                            <g id="movistar" transform="translate(48.241683, 6.231110)">
                                <mask id="mask-2" fill="white">
                                    <use xlink:href="#path-1"></use>
                                </mask>
                                <g id="Clip-2"></g>
                                <path d="M55.9225178,3.0206656 L53.5060973,3.0206656 C53.3044579,3.0206656 53.2085166,3.09859033 53.2085166,3.29556673 L53.2112268,16.8317418 C53.2112268,17.0276359 53.3066261,17.1066429 53.5082655,17.1066429 L55.9236019,17.1066429 C56.1257833,17.1066429 56.2222667,17.0276359 56.2222667,16.8317418 L56.2195565,3.29556673 C56.2195565,3.09859033 56.1246992,3.0206656 55.9225178,3.0206656 L55.9225178,3.0206656 Z M33.5161532,12.111343 C33.2825333,14.3955117 32.1279852,14.7532078 30.2731196,14.7532078 L30.1956077,14.7532078 C28.3412841,14.7532078 27.1856519,14.3955117 26.9552843,12.111343 C26.8821087,11.4213845 26.8251944,10.8510187 26.8251944,10.0566194 C26.8251944,9.26059663 26.8821087,8.69077204 26.9552843,8.00081348 C27.1856519,5.71664482 28.3412841,5.3594898 30.1956077,5.3594898 L30.2731196,5.3594898 C32.1279852,5.3594898 33.2825333,5.71664482 33.5161532,8.00081348 C33.5887867,8.69077204 33.645159,9.26059663 33.645159,10.0566194 C33.645159,10.8510187 33.5887867,11.4213845 33.5161532,12.111343 L33.5161532,12.111343 Z M36.2312385,13.942033 C36.5217726,12.9836671 36.683843,11.8813568 36.683843,10.0566194 C36.683843,8.2324231 36.5217726,7.12632484 36.2312385,6.17012346 C35.4973144,3.72307046 33.5616847,2.75009362 30.422723,2.75009362 L30.0481724,2.75009362 C26.9092108,2.75009362 24.973581,3.72307046 24.2358627,6.17012346 C23.9480387,7.12632484 23.7854263,8.2324231 23.7854263,10.0566194 C23.7854263,11.8813568 23.9480387,12.9836671 24.2358627,13.942033 C24.973581,16.3885449 26.9092108,17.3642275 30.0481724,17.3642275 L30.422723,17.3642275 C33.5616847,17.3642275 35.4973144,16.3885449 36.2312385,13.942033 L36.2312385,13.942033 Z M15.6916644,2.75009362 L14.9620767,2.75009362 C12.8632924,2.75009362 11.469704,3.30693075 10.7943205,4.13271644 L10.7780592,4.13271644 C10.1026757,3.30693075 8.62236067,2.75009362 6.5230344,2.75009362 L5.77339117,2.75009362 C3.40738054,2.75009362 1.46795647,3.57155015 0.689043005,5.25504902 C0.353519389,5.98018193 0.24402703,6.95261763 0.24402703,8.00297806 L0.24402703,16.7841211 C0.24402703,16.9773095 0.356771638,17.1066429 0.554616742,17.1066429 L2.93743066,17.1066429 C3.13364964,17.1066429 3.24639424,16.9773095 3.24639424,16.7841211 L3.25127262,9.47001934 C3.25127262,8.42344692 3.27620652,7.66259851 3.32932658,7.19396784 C3.46646305,5.96665333 4.37871869,5.37085383 6.11812949,5.37085383 L6.31705867,5.37085383 C8.05538539,5.37085383 9.01100434,5.96665333 9.14705673,7.19396784 C9.20017678,7.66259851 9.22565273,8.42344692 9.22565273,9.47001934 L9.22565273,16.7868269 C9.22565273,16.9800153 9.34381775,17.1066429 9.54057877,17.1066429 L11.9293551,17.1066429 C12.1255741,17.1066429 12.2372346,16.9545815 12.2372346,16.7613931 L12.2404869,9.47001934 C12.2404869,8.42344692 12.2654208,7.66259851 12.3185409,7.19396784 C12.4551353,5.96665333 13.4085861,5.37085383 15.1485389,5.37085383 L15.3480101,5.37085383 C17.0874209,5.37085383 17.9980505,5.96665333 18.135729,7.19396784 C18.1872229,7.66259851 18.2116148,8.42344692 18.2116148,9.47001934 L18.2116148,16.7868269 C18.2116148,16.986509 18.3281537,17.1066429 18.5249147,17.1066429 L20.913691,17.1066429 C21.10991,17.1066429 21.2210285,16.9545815 21.2210285,16.7613931 L21.2210285,8.00297806 C21.2210285,6.95261763 21.109368,5.98018193 20.7749285,5.25504902 C19.9976411,3.57155015 18.0560489,2.75009362 15.6916644,2.75009362 L15.6916644,2.75009362 Z M77.5342497,17.1066429 C77.7407675,17.1066429 77.8540541,16.9951673 77.8540541,16.8133429 L77.8540541,14.8040754 C77.8540541,14.6233333 77.7407675,14.5107754 77.5342497,14.5107754 L77.2139033,14.5107754 C76.25449,14.5107754 75.664749,14.2797069 75.3048335,13.9009061 C74.8272951,13.3992657 74.7286435,12.584844 74.7286435,11.6199843 L74.7286435,5.51588041 L77.3873565,5.51588041 C77.5879118,5.51588041 77.6876474,5.43849682 77.6876474,5.24206156 L77.6876474,3.29177872 C77.6876474,3.09588461 77.5879118,3.01904217 77.3873565,3.01904217 L74.7286435,3.01904217 L74.7286435,0.49027643 C74.7286435,0.293841172 74.6289079,0.214834153 74.4278106,0.214834153 L72.0113901,0.214834153 C71.8097507,0.214834153 71.7176037,0.293841172 71.7176037,0.49027643 L71.7176037,11.7834098 C71.7176037,13.7488447 72.1084155,15.0032164 72.9740556,15.8614707 C73.7865756,16.6661518 75.0554945,17.1066429 76.8940988,17.1066429 L77.5342497,17.1066429 Z M62.6611762,10.7887872 C63.31271,11.0301374 63.8542093,11.2287372 64.4997806,11.4576411 C65.8819861,11.9484587 66.4733533,12.3370001 66.4733533,13.1806435 C66.4733533,14.2721309 65.5518829,14.851696 63.4671918,14.851696 L63.391848,14.851696 C62.2156182,14.851696 60.8675613,14.6206276 59.6832009,14.2423679 C59.4387402,14.1639021 59.304314,14.2564377 59.304314,14.5026582 L59.304314,16.3019619 C59.304314,16.5276189 59.3427989,16.6650695 59.5964743,16.7527348 C60.7271726,17.1418173 62.2871677,17.3604395 63.5604229,17.3604395 L63.6574483,17.3604395 C67.360675,17.3604395 69.3683963,15.7169852 69.3683963,13.0567215 L69.3689383,13.0177592 C69.3689383,11.9917502 69.0307045,11.0631472 68.4003104,10.4446196 C67.7829253,9.83853838 66.8446516,9.36828428 65.3963171,8.83038718 C64.623366,8.54358088 64.0233262,8.32279414 63.4888734,8.12690003 C62.2844575,7.68803227 61.9467657,7.27568057 61.9467657,6.65769417 C61.9467657,5.63601437 62.9495423,5.23665012 64.5637415,5.23665012 L64.6867849,5.23719127 C65.618012,5.23719127 66.7460001,5.37085383 68.1141125,5.61869776 C68.3672459,5.664695 68.5103448,5.60949831 68.5103448,5.34812578 L68.5103448,3.50066029 C68.5103448,3.25714551 68.4447578,3.18950251 68.1932506,3.13538812 C67.3037607,2.94707002 65.6901035,2.75009362 64.7843523,2.75009362 L64.5664517,2.75009362 C62.6768954,2.75009362 61.2746344,3.10021376 60.3406971,3.91355314 C59.5812971,4.57374877 59.0734043,5.57215938 59.0734043,6.76538182 L59.0728623,6.85088256 C59.0728623,7.95643968 59.4571696,8.84824493 60.1157499,9.45540846 C60.7298828,10.0225273 61.558122,10.3807646 62.6611762,10.7887872 L62.6611762,10.7887872 Z M43.2262825,17.1066429 L45.8432583,17.1066429 C46.0687475,17.1066429 46.1679411,17.0335885 46.2606301,16.8604224 C47.9555936,13.6752491 50.5487195,8.23296424 50.725425,3.29773131 C50.7319295,3.10129605 50.6495392,3.01741873 50.3942377,3.01741873 L47.9555936,3.01795988 C47.6721059,3.01795988 47.5935099,3.10887206 47.5777907,3.36158629 C47.4650461,5.15980768 47.0829069,7.24754109 46.5283986,9.11232318 C45.9549188,11.0409603 45.2264152,12.8770617 44.5277239,14.2423679 C43.8290325,12.8770617 43.0994448,11.0409603 42.5270491,9.11232318 C41.9687465,7.23563592 41.5838971,5.13275048 41.4749468,3.32641194 C41.4586855,3.06936855 41.320465,3.01795988 41.0705839,3.01795988 L38.6156785,3.01795988 C38.3560407,3.01795988 38.2834071,3.13863498 38.3029206,3.40163095 C38.6471169,8.2372934 40.1534499,11.9933736 42.7666314,16.8712453 C42.8582364,17.042788 42.996999,17.1066429 43.2262825,17.1066429 L43.2262825,17.1066429 Z M101.180263,2.74901133 L99.5617274,2.74901133 C97.2369119,2.74901133 95.4221574,3.55261011 94.644328,5.23610898 C94.3082623,5.96178303 94.2036483,6.93367759 94.2036483,7.98295573 L94.2036483,16.8317418 C94.2036483,17.0276359 94.2990476,17.1066429 94.500687,17.1066429 L96.9165655,17.1066429 C97.1182048,17.1066429 97.2081837,17.0276359 97.2081837,16.8317418 L97.2081837,9.42997469 C97.2081837,8.38448455 97.2298654,7.62255385 97.2835275,7.1528409 C97.4206639,5.92660868 98.1665129,5.34812578 99.9042976,5.34812578 L101.190562,5.34812578 C101.398164,5.34812578 101.488685,5.24206156 101.488685,5.0418383 L101.488685,3.05421652 C101.488685,2.84966411 101.388949,2.74901133 101.180263,2.74901133 L101.180263,2.74901133 Z M88.6168278,12.0480292 C88.6168278,13.1048833 88.5821372,13.7261166 88.1983719,14.1666078 C87.7907567,14.633615 87.0682156,14.8554841 86.0903729,14.8554841 L85.6144606,14.8554841 C83.8083787,14.8554841 82.7579025,14.1314334 82.7579025,12.7433992 C82.7579025,12.1086373 83.0088677,11.5426007 83.3975113,11.2076326 C83.8555363,10.8142209 84.5265835,10.6215737 85.6762533,10.6215737 L85.9310128,10.6215737 C86.8015312,10.6215737 87.794551,10.7086979 88.6168278,10.9246143 L88.6168278,12.0480292 Z M88.8688771,3.32641194 C88.0634036,2.98116209 86.8405582,2.75009362 85.2572553,2.75009362 L85.0642886,2.75009362 C84.0994549,2.75009362 82.7860887,2.86752186 81.5209641,3.09588461 C81.3073998,3.13376469 81.2233834,3.24361691 81.2233834,3.48875513 L81.2233834,5.29130566 C81.2233834,5.51642155 81.3399223,5.59434628 81.5946817,5.55646621 C82.7053245,5.38979387 83.8501159,5.27398906 84.7298491,5.27398906 L84.8550606,5.27398906 C86.1012138,5.27398906 87.1077846,5.38817043 87.7137869,5.79565184 C88.3170789,6.20150981 88.6168278,6.80542647 88.6168278,8.11824172 L88.6168278,8.5057008 C87.702946,8.31305355 86.601518,8.18642586 85.5916949,8.18588472 L85.3233844,8.18588472 C83.6408879,8.18588472 82.0608373,8.59174269 81.0531824,9.53062747 C80.2791473,10.2525135 79.7696284,11.3396717 79.7696284,12.7271649 L79.7696284,12.8462165 C79.7696284,15.6390605 81.7014639,17.3609806 85.6258435,17.3609806 L86.3245348,17.3609806 C87.8671846,17.3609806 89.3328645,16.9026317 90.2153079,16.174793 C91.2294673,15.3376433 91.6235314,14.0984237 91.6235314,12.1167545 L91.6235314,8.08090279 C91.6235314,5.32269201 90.544327,4.04667455 88.8688771,3.32641194 L88.8688771,3.32641194 Z" id="Fill-1" fill="#5BC500" mask="url(#mask-2)"></path>
                            </g>
                            <g id="Nuestra-M" transform="translate(0.000000, 0.278527)" fill="#5BC500">
                                <path d="M7.38867449,3.61700624 C5.56741544,3.64568687 2.20621683,4.54236242 0.670613598,10.8023158 C0.00173453242,13.5302225 -0.256819207,16.3733929 0.315576493,19.7577072 C0.843524799,22.8790256 1.77908822,25.5733814 2.40948235,27.0577393 C2.62684095,27.5696615 2.96344864,28.1032294 3.22362851,28.4311626 C3.97164561,29.3754589 5.21725671,29.3153919 5.74032664,29.0578074 C6.31109622,28.7774948 6.96696629,28.1005237 6.72955216,26.5550165 C6.61463939,25.8082379 6.28399415,24.7156682 6.09807395,24.1085047 C5.5262203,22.2448049 4.76573624,19.9963517 4.69960719,18.3951067 C4.6107124,16.2521766 5.456839,15.9724052 6.01893591,15.8484832 C6.96371404,15.6412251 7.75617854,16.6769746 8.50853198,17.975179 C9.40669455,19.5244742 10.9460921,22.2702386 12.2014599,24.3666303 C13.3354105,26.2600931 15.4271482,28.2866772 18.7867207,28.1476032 C22.2118802,28.0058235 24.7361669,26.7011254 26.0365241,22.5943839 C27.0094884,19.5212273 27.6729471,17.2251535 28.7407686,14.873883 C29.9679503,12.1697866 31.6054573,10.7227676 32.9838685,11.1643411 C34.2641703,11.5750694 34.5834327,12.8240296 34.5991519,14.6601311 C34.6127029,16.2846453 34.4246145,18.0752906 34.2782634,19.3908116 C34.2251433,19.8681006 34.1286599,20.82809 34.168229,21.3616579 C34.2451988,22.4098538 34.6999716,23.4564262 35.8821638,23.6241808 C37.141868,23.8022172 38.1522331,22.797854 38.5555119,21.5835269 C38.71433,21.1040734 38.8503824,20.3719056 38.923558,19.8518663 C39.2937723,17.227318 39.3902556,15.4631887 39.2227648,12.7774912 C39.0276299,9.63723283 38.412413,6.77349898 37.338087,4.29560077 C36.3109185,1.92539022 34.6604025,0.406399116 32.544273,0.272195413 C30.2015701,0.123921967 27.5130449,1.67592285 26.1026532,4.68630671 C24.802838,7.46129295 23.7626606,10.3104159 23.1317244,11.7644697 C22.4921156,13.239087 21.5516738,14.1476678 20.1060494,14.2997292 C18.3384524,14.4853416 16.8153162,13.2044538 15.699795,11.3775518 C14.7268307,9.78496513 12.7993316,6.75347665 11.7683689,5.73504371 C10.7991989,4.77830119 9.69235036,3.5807496 7.38867449,3.61700624" id="Fill-4"></path>
                            </g>
                        </g>
                    </g>
                </g>
            </g>
        </g>
    </g>
</svg>